<svg width="120" height="120" viewBox="0 0 120 120" xmlns="http://www.w3.org/2000/svg"><g fill="none" fill-rule="evenodd"><path fill="#000" d="M25 57l22 7-15 18 13 11 15-20 15 20 13-11-15-18 22-7-6-16-21 9 1-23H52v23l-21-9z"/><g fill="#FF3824"><path d="M60 105c24.853 0 45-20.147 45-45S84.853 15 60 15 15 35.147 15 60s20.147 45 45 45zm0 15C26.863 120 0 93.137 0 60S26.863 0 60 0s60 26.863 60 60-26.863 60-60 60z"/><path d="M28.91 101.917l73.007-73.007 5.303-5.303L96.613 13l-5.303 5.303L18.303 91.31 13 96.613l10.607 10.607z"/></g></g></svg>
